{"title":"The.Wolfman.2010.SWESUB.DVDRip.XviD.AC3.(5.1).-Zen_Bud","uid":5605061,"size":1472605020,"categoryP":"video","categoryS":"movies","magnet":"?xt=urn:btih:d4986884d7889fc1f6a100c3c7b51c066ed8011a&amp;dn=The.Wolfman.2010.SWESUB.DVDRip.XviD.AC3.%285.1%29.-Zen_Bud&amp;tr=udp%3A%2F%2Ftracker.openbittorrent.com%3A80&amp;tr=udp%3A%2F%2Fopen.demonii.com%3A1337&amp;tr=udp%3A%2F%2Ftracker.coppersurfer.tk%3A6969&amp;tr=udp%3A%2F%2Fexodus.desync.com%3A6969","seeders":0,"leechers":1,"uploader":"Zen_Bud","files":1,"time":1275548675,"description":"General\nComplete name                    : The.Wolfman.avi\nFormat                           : AVI\nFile size                        : 1.37 GiB\nDuration                         : 1h 59mn\nOverall bit rate                 : 1 649 Kbps\n\nVideo\nID                               : 0\nFormat                           : MPEG-4 Visual\nCodec ID/Hint                    : XviD\nDuration                         : 1h 59mn\nBit rate                         : 1 190 Kbps\nWidth                            : 720 pixels\nHeight                           : 564 pixels\nDisplay aspect ratio             : 16:9\nChroma subsampling               : 4:2:0\nBit depth                        : 8 bits\nScan type                        : Progressive\nBits/(Pixel*Frame)               : 0.117\nStream size                      : 1 014 MiB (72%)\nWriting library                  : XviD 1.1.2 (UTC 2006-11-01)\n\nAudio\nID                               : 1\nFormat                           : AC-3\nDuration                         : 1h 59mn\nBit rate                         : 448 Kbps\nChannel(s)                       : 6 channels\nChannel positions                : Front: L C R, Side: L R, LFE\nSampling rate                    : 48.0 KHz\nStream size                      : 382 MiB (27%)\n\n\n","torrent":{"xt":"urn:btih:d4986884d7889fc1f6a100c3c7b51c066ed8011a","amp;dn":"The.Wolfman.2010.SWESUB.DVDRip.XviD.AC3.%285.1%29.-Zen_Bud","amp;tr":["udp%3A%2F%2Ftracker.openbittorrent.com%3A80","udp%3A%2F%2Fopen.demonii.com%3A1337","udp%3A%2F%2Ftracker.coppersurfer.tk%3A6969","udp%3A%2F%2Fexodus.desync.com%3A6969"],"infoHash":"d4986884d7889fc1f6a100c3c7b51c066ed8011a","infoHashBuffer":{"type":"Buffer","data":[212,152,104,132,215,136,159,193,246,161,0,195,199,181,28,6,110,216,1,26]},"announce":[],"urlList":[]}}